# xmcd CD database file
#
# Track frame offsets:
#	150
#	11173
#	45626
#	84164
#	114740
#	161773
#	201467
#	230715
#	302705
#
# Disc length: 4302 seconds
#
# Revision: 2
# Processed by: cddbd v1.5.2PL0 Copyright (c) Steve Scherf et al.
# Submitted via: CDex 1.70beta3
#
DISCID=7510cc09
DTITLE=THE iDOLM@STER - ぷちます!　PETIT iDOLM@STER Drama CD 1
DYEAR=2011
DGENRE=Other
TTITLE0=お～ぷにんぐ
TTITLE1=あらたなるはじまり
TTITLE2=たすけて
TTITLE3=ぷちにめろめろ
TTITLE4=すかいはい
TTITLE5=たのしいらぢお
TTITLE6=どんまいあいどる
TTITLE7=みんながんばれ!
TTITLE8=(おまけ)きゃすとこめんと
EXTD=YEAR: 2011
EXTT0=
EXTT1=
EXTT2=
EXTT3=
EXTT4=
EXTT5=
EXTT6=
EXTT7=
EXTT8=
PLAYORDER=
